<svg width="116" height="58" fill="none" xmlns="http://www.w3.org/2000/svg">
<g clip-path="url(#clip0_681_16216)">
<path d="M53.5257 23.9021C51.2984 24.5205 49.0405 25.0336 46.7827 25.4503C40.9782 26.5435 35.0691 26.9702 29.1689 26.7221C28.858 26.7046 28.5485 26.6827 28.2405 26.6563C28.4176 26.284 28.6185 25.9236 28.842 25.5774C32.0065 20.7531 37.8908 16.3235 43.348 14.6131C45.6276 13.9552 48.0729 13.6131 50.0125 14.999C52.1048 16.6174 53.0593 20.8408 53.5257 23.9021Z" fill="#FFBF40"/>
<path d="M54.1535 33.2524C54.1535 34.5682 54.1099 35.8532 54.0358 37.1382C53.9966 37.6733 53.9399 38.2127 53.8702 38.7434C53.0725 45.3746 50.3003 51.5015 46.408 56.9092C41.4339 55.3562 36.968 52.4828 33.4802 48.5914C29.9923 44.6999 27.6116 39.9343 26.5886 34.7962C30.519 35.3053 34.4865 35.4623 38.4445 35.2655C43.7287 35.0511 48.9846 34.3776 54.1535 33.2524Z" fill="#FFBF40"/>
<path d="M54.5763 10.7142C51.1982 7.22749 45.9721 6.90733 41.6089 8.0257C38.2745 8.81513 34.369 10.6571 30.7817 13.1219C33.2785 9.29515 36.6372 6.11485 40.5848 3.83931C44.5325 1.56376 48.9579 0.257142 53.5017 0.0255566C58.0455 -0.206028 62.5794 0.643953 66.7354 2.50647C70.8914 4.36899 74.5522 7.19153 77.4206 10.7449C75.4562 12.7178 73.3092 14.4978 71.0088 16.0604C67.2514 18.5881 63.1993 20.6414 58.9438 22.1741C58.4556 18.0691 57.4008 13.6482 54.5763 10.7142Z" fill="#FFBF40"/>
<path d="M83.8803 29.0993C83.8769 33.4997 82.8827 37.8421 80.9722 41.8005C79.0618 45.7588 76.2847 49.2301 72.8497 51.9537C69.4147 54.6772 65.411 56.5822 61.1394 57.5256C56.8677 58.469 52.4391 58.4262 48.1863 57.4005C48.474 57.1505 48.7529 56.8917 49.0319 56.6286C52.6248 53.219 55.3796 49.0147 57.0782 44.3485C57.8676 42.1713 58.4257 39.9162 58.7432 37.6208C58.9655 35.7305 59.1181 33.8534 59.1791 31.9719C66.8767 29.7177 74.1776 26.2354 80.5066 21.1786C81.1168 20.6918 81.7183 20.1874 82.3024 19.6655C83.3436 22.7006 83.8768 25.8885 83.8803 29.0993Z" fill="#FFBF40"/>
</g>
<defs>
<clipPath id="clip0_681_16216">
<rect width="116" height="88" fill="white"/>
</clipPath>
</defs>
</svg>
